<svg xmlns="http://www.w3.org/2000/svg" version="1.1" xmlns:xlink="http://www.w3.org/1999/xlink" xmlns:svgjs="http://svgjs.dev/svgjs" width="2000" height="1500" viewBox="0 0 2000 1500"><rect width="2000" height="1500" fill="#ffffff"></rect><g transform="matrix(0.75,0,0,0.75,249.78667664670684,-0.21332335329350371)"><svg viewBox="0 0 334 334" data-background-color="#ffffff" preserveAspectRatio="xMidYMid meet" height="2000" width="2000" xmlns="http://www.w3.org/2000/svg" xmlns:xlink="http://www.w3.org/1999/xlink"><g id="tight-bounds" transform="matrix(1,0,0,1,0.04749999999998522,0.04750000000001364)"><svg viewBox="0 0 333.90454557049503 333.90454557049503" height="333.90454557049503" width="333.90454557049503"><g><svg></svg></g><g><svg viewBox="0 0 333.90454557049503 333.90454557049503" height="333.90454557049503" width="333.90454557049503"><g><path d="M0 166.952c0-92.205 74.747-166.952 166.952-166.952 92.205 0 166.952 74.747 166.953 166.952 0 92.205-74.747 166.952-166.953 166.953-92.205 0-166.952-74.747-166.952-166.953zM166.952 316.63c82.665 0 149.677-67.013 149.678-149.678 0-82.665-67.013-149.677-149.678-149.677-82.665 0-149.677 67.013-149.677 149.677 0 82.665 67.013 149.677 149.677 149.678z" data-fill-palette-color="tertiary" fill="#2d3530" stroke="transparent"></path><ellipse rx="160.27418187383762" ry="160.27418187383762" cx="166.95227278524752" cy="166.95227278524752" fill="#2d3530" stroke="transparent" stroke-width="0" fill-opacity="1" data-fill-palette-color="tertiary"></ellipse></g><g transform="matrix(1,0,0,1,87.3301406692362,71.17305217166896)"><svg viewBox="0 0 159.24426423202263 191.55844122715712" height="191.55844122715712" width="159.24426423202263"><g><svg viewBox="0 0 159.24426423202263 191.55844122715712" height="191.55844122715712" width="159.24426423202263"><g><svg viewBox="0 0 159.24426423202263 191.55844122715712" height="191.55844122715712" width="159.24426423202263"><g><svg viewBox="0 0 159.24426423202263 191.55844122715712" height="191.55844122715712" width="159.24426423202263"><g id="textblocktransform"><svg viewBox="0 0 159.24426423202263 191.55844122715712" height="191.55844122715712" width="159.24426423202263" id="textblock"><g><svg viewBox="0 0 159.24426423202263 191.55844122715712" height="191.55844122715712" width="159.24426423202263"><g transform="matrix(1,0,0,1,0,0)"><svg width="159.24426423202263" viewBox="1.25 -36.35 30.799999999999997 37.050000000000004" height="191.55844122715712" data-palette-color="#d21800"><path d="M10.5-10.25L10.5-10.25Q10.5-6.8 15.48-6.8 20.45-6.8 20.45-9.9L20.45-9.9Q20.45-11.55 18.75-12.6 17.05-13.65 14.63-14.35 12.2-15.05 9.78-15.98 7.35-16.9 5.65-18.88 3.95-20.85 3.95-23.8L3.95-23.8Q3.95-36.35 20.1-36.35L20.1-36.35Q26-36.35 29.03-34.13 32.05-31.9 32.05-27.95L32.05-27.95Q32.05-26.5 31.68-25.18 31.3-23.85 30.9-23.3L30.9-23.3 30.5-22.7 21.65-22.7Q22.75-23.85 22.75-25.6L22.75-25.6Q22.75-28.85 18.5-28.85L18.5-28.85Q13.15-28.85 13.15-25.45L13.15-25.45Q13.15-23.75 14.85-22.75 16.55-21.75 18.98-21.18 21.4-20.6 23.85-19.75 26.3-18.9 28-16.93 29.7-14.95 29.7-11.8L29.7-11.8Q29.7-5.45 25.9-2.38 22.1 0.7 14.2 0.7 6.3 0.7 3.4-2.1L3.4-2.1Q1.25-4.2 1.25-7.9L1.25-7.9Q1.25-9.3 1.55-10.95L1.55-10.95 1.7-11.75 10.7-11.75 10.6-11.15Q10.5-10.65 10.5-10.25Z" opacity="1" transform="matrix(1,0,0,1,0,0)" fill="#d21800" class="wordmark-text-0" data-fill-palette-color="quaternary" id="text-0"></path></svg></g></svg></g></svg></g></svg></g><g></g></svg></g></svg></g></svg></g></svg></g><defs></defs></svg><rect width="333.90454557049503" height="333.90454557049503" fill="none" stroke="none" visibility="hidden"></rect></g></svg></g></svg>